<?xml version="1.0" standalone="no"?>
<!DOCTYPE svg PUBLIC "-//W3C//DTD SVG 20010904//EN"
 "http://www.w3.org/TR/2001/REC-SVG-20010904/DTD/svg10.dtd">
<svg version="1.0" xmlns="http://www.w3.org/2000/svg"
 width="1000.000000pt" height="1000.000000pt" viewBox="0 0 1000.000000 1000.000000"
 preserveAspectRatio="xMidYMid meet">

<g transform="translate(0.000000,1000.000000) scale(0.100000,-0.100000)"
fill="#000000" stroke="none">
<path d="M3837 8253 c-4 -3 -7 -74 -7 -157 -1 -234 -15 -403 -39 -457 -20 -44
-36 -57 -96 -75 l-30 -9 -3 -169 c-2 -116 1 -173 9 -182 15 -18 189 -20 207
-2 7 7 12 43 12 90 l0 78 229 0 229 0 4 -80 c2 -58 7 -84 18 -90 17 -11 169
-14 194 -4 14 5 16 31 16 184 0 170 -1 179 -20 185 -11 3 -24 4 -29 1 -5 -4
-16 -3 -25 0 -14 5 -16 44 -16 344 0 299 -2 339 -16 344 -21 8 -629 8 -637 -1z
m423 -437 c0 -225 -1 -245 -17 -249 -34 -8 -228 -7 -241 1 -11 8 -10 16 3 48
19 44 32 152 42 327 l6 117 103 0 104 0 0 -244z"/>
<path d="M4667 8253 c-4 -3 -7 -46 -7 -95 l0 -88 125 0 125 0 0 -340 c0 -325
1 -340 19 -350 23 -12 180 -13 198 -2 10 6 13 91 15 348 l3 339 125 5 125 5 0
90 0 90 -361 3 c-198 1 -363 -1 -367 -5z"/>
<path d="M5530 7821 c0 -391 2 -440 16 -445 29 -11 179 -7 192 6 9 9 12 99 12
345 l0 333 160 0 160 0 0 -339 c0 -300 2 -340 16 -345 23 -9 177 -7 192 2 10
7 12 102 10 443 l-3 434 -377 3 -378 2 0 -439z"/>
<path d="M1880 6524 c-51 -9 -106 -28 -147 -52 -112 -63 -162 -251 -114 -426
24 -85 84 -152 164 -182 76 -28 263 -26 328 4 59 28 116 84 142 141 29 64 31
263 4 330 -36 88 -86 134 -179 166 -46 15 -158 26 -198 19z m129 -167 c45 -38
66 -188 39 -279 -25 -85 -116 -116 -178 -60 -42 37 -59 138 -41 241 13 71 26
92 71 110 28 12 88 5 109 -12z"/>
<path d="M3475 6524 c-112 -26 -176 -62 -217 -122 -37 -54 -49 -99 -55 -212
-8 -157 46 -261 167 -318 49 -23 68 -26 165 -25 100 0 115 2 167 27 64 31 120
87 143 142 30 73 29 74 -95 74 l-110 0 -14 -34 c-18 -42 -42 -56 -99 -56 -61
0 -93 36 -103 116 -9 72 2 171 22 201 21 33 76 57 109 49 24 -6 39 -19 89 -77
13 -16 30 -19 104 -19 103 0 117 7 108 46 -20 80 -97 154 -195 189 -45 16
-153 27 -186 19z"/>
<path d="M5035 6521 c-52 -14 -99 -38 -119 -60 -25 -28 -34 -27 -38 6 -4 33
-26 41 -120 42 l-68 1 0 -450 0 -450 93 0 c59 0 97 4 105 12 8 8 12 57 12 155
l0 143 45 -34 c66 -51 189 -60 265 -21 37 19 89 74 110 115 33 64 45 186 30
287 -15 95 -36 146 -78 189 -52 52 -167 83 -237 65z m63 -195 c43 -42 52 -197
15 -268 -16 -33 -61 -58 -102 -58 -21 0 -42 11 -71 39 l-42 40 4 110 c3 99 5
112 27 135 41 44 127 45 169 2z"/>
<path d="M7975 6523 c-135 -21 -232 -99 -258 -208 -39 -167 -3 -341 85 -406
70 -52 114 -64 238 -63 104 0 120 3 172 27 65 32 111 80 139 144 26 61 27 255
2 327 -28 77 -94 134 -194 165 -42 13 -142 21 -184 14z m110 -159 c50 -23 75
-84 75 -180 0 -153 -67 -225 -174 -184 -45 17 -60 63 -60 180 0 122 12 156 64
182 43 22 53 22 95 2z"/>
<path d="M8855 6521 c-41 -10 -95 -39 -122 -64 l-23 -20 0 30 c0 19 -6 33 -16
37 -23 9 -157 7 -172 -2 -10 -7 -12 -103 -10 -448 l3 -439 100 0 100 0 3 148
c1 81 5 147 8 147 3 0 20 -11 37 -24 46 -35 111 -49 185 -42 103 11 172 67
213 176 27 73 27 243 -2 327 -21 65 -95 153 -128 153 -9 0 -21 4 -26 9 -14 13
-114 21 -150 12z m44 -179 c39 -20 71 -90 71 -156 0 -68 -30 -144 -66 -166
-57 -36 -127 -18 -164 43 -28 46 -28 182 0 236 29 59 95 76 159 43z"/>
<path d="M868 6503 c-17 -4 -18 -28 -18 -317 0 -229 3 -315 12 -324 7 -7 43
-12 93 -12 50 0 86 5 93 12 8 8 12 50 12 125 l0 113 35 0 c33 0 38 -5 117
-122 l83 -123 108 -3 c89 -2 108 0 113 13 8 20 9 19 -105 184 -77 112 -98 148
-90 160 5 9 22 35 37 58 85 131 133 217 128 229 -8 21 -189 20 -210 -1 -8 -8
-41 -59 -72 -112 -32 -54 -63 -101 -69 -105 -5 -4 -25 -8 -42 -8 l-33 0 0 108
c0 71 -4 112 -12 120 -12 12 -142 15 -180 5z"/>
<path d="M2422 6502 c-9 -7 -12 -79 -10 -328 l3 -319 88 -3 c57 -2 94 1 103 9
11 9 14 40 14 125 l0 114 115 0 115 0 0 -108 c0 -143 0 -144 115 -140 l90 3 3
319 c2 249 -1 321 -10 328 -21 13 -172 10 -186 -4 -8 -8 -12 -49 -12 -120 l0
-108 -115 0 -115 0 0 114 c0 95 -3 115 -16 120 -23 9 -167 7 -182 -2z"/>
<path d="M3932 6498 c-15 -15 -16 -103 -2 -129 10 -17 22 -19 115 -19 58 0
106 -1 107 -2 1 -2 5 -113 8 -248 l5 -245 85 -3 c71 -2 87 0 97 14 10 13 13
78 13 251 l0 233 105 0 c105 0 106 0 116 27 11 30 2 115 -15 125 -19 12 -622
8 -634 -4z"/>
<path d="M5443 6494 c-3 -9 2 -33 11 -53 20 -40 19 -39 101 -231 75 -177 103
-239 120 -273 20 -39 19 -70 -5 -116 -20 -40 -41 -51 -101 -51 -40 0 -49 -14
-49 -80 0 -74 6 -80 73 -80 159 0 219 63 338 355 41 102 121 296 144 350 7 17
18 41 23 55 6 14 20 46 30 72 26 60 17 68 -76 68 -77 0 -112 -11 -112 -35 0
-9 -4 -23 -10 -33 -5 -9 -21 -46 -35 -82 -14 -36 -30 -74 -35 -85 -32 -71 -50
-119 -50 -131 0 -7 -4 -16 -10 -19 -11 -7 -37 47 -71 145 -12 36 -25 70 -29
75 -4 6 -17 39 -30 75 -13 36 -30 71 -38 78 -10 7 -47 12 -99 12 -68 0 -85 -3
-90 -16z"/>
<path d="M6255 6497 c-3 -7 -4 -154 -3 -327 l3 -315 85 -3 c115 -4 120 2 120
144 l0 104 34 0 c32 0 38 -6 94 -92 33 -51 73 -108 87 -126 l28 -33 101 3 c88
3 101 5 104 21 3 16 -26 64 -146 238 -21 31 -41 63 -44 71 -3 7 21 56 53 108
113 183 118 194 107 207 -14 18 -178 18 -200 1 -14 -12 -88 -123 -88 -133 0
-2 -14 -25 -32 -50 -27 -38 -37 -45 -65 -45 -18 0 -33 3 -34 8 0 4 -1 53 -2
110 -2 79 -5 105 -17 112 -23 15 -180 13 -185 -3z"/>
<path d="M6974 6496 c-3 -7 -4 -42 -2 -77 l3 -64 108 -3 107 -3 0 -238 c0
-192 3 -241 14 -250 9 -8 46 -11 103 -9 l88 3 5 245 5 245 103 3 c100 3 103 3
112 28 6 14 10 45 10 69 0 34 -5 47 -20 55 -30 16 -630 12 -636 -4z"/>
<path d="M5283 5098 c-19 -9 -42 -56 -58 -118 -3 -14 -12 -47 -20 -75 -8 -27
-21 -79 -30 -115 -9 -36 -21 -78 -27 -95 -5 -16 -13 -48 -17 -70 -4 -23 -10
-46 -14 -52 -4 -7 -11 -31 -16 -55 -5 -24 -19 -79 -31 -123 -30 -107 -49 -180
-61 -235 -6 -25 -14 -54 -20 -65 -5 -11 -14 -42 -20 -70 -23 -108 -23 -109 9
-143 73 -77 143 -13 169 153 3 22 10 48 15 59 9 17 28 85 93 346 15 58 31 113
36 123 5 9 12 39 16 65 3 26 10 52 14 58 5 6 13 31 18 55 14 65 31 130 43 164
17 49 26 118 21 148 -9 46 -71 69 -120 45z"/>
<path d="M4586 4973 c-27 -25 -28 -29 -22 -91 4 -35 13 -77 21 -93 8 -15 15
-39 15 -52 0 -14 7 -41 15 -60 8 -20 15 -47 15 -59 0 -13 7 -36 15 -52 8 -15
15 -39 15 -51 0 -13 5 -36 11 -52 7 -15 15 -46 20 -68 15 -75 41 -159 57 -182
13 -21 22 -24 65 -21 41 2 54 8 71 31 19 25 19 31 7 75 -7 26 -17 67 -22 92
-5 24 -14 49 -19 54 -6 6 -10 20 -10 32 0 12 -6 44 -14 70 -8 27 -19 69 -26
94 -6 25 -18 70 -26 100 -9 30 -20 75 -25 100 -13 65 -29 101 -57 133 -33 34
-69 35 -106 0z"/>
<path d="M4242 4440 c-15 -12 -26 -34 -28 -57 -5 -42 2 -56 96 -188 30 -43 62
-88 70 -101 8 -12 36 -53 62 -91 116 -169 172 -250 192 -275 11 -15 41 -56 66
-91 70 -100 124 -119 170 -60 24 31 25 68 2 105 -22 35 -139 204 -202 293 -28
39 -58 83 -68 99 -9 16 -29 44 -44 61 -16 18 -28 35 -28 38 0 3 -36 56 -80
118 -44 61 -80 115 -80 120 0 12 -65 49 -86 49 -11 -1 -30 -9 -42 -20z"/>
<path d="M5660 4422 c-14 -11 -35 -40 -48 -65 -12 -25 -29 -50 -37 -57 -8 -7
-15 -17 -15 -22 0 -5 -13 -29 -30 -53 -16 -24 -30 -46 -30 -48 0 -3 -20 -36
-45 -74 -25 -37 -45 -72 -45 -77 0 -4 -13 -25 -28 -45 -16 -20 -32 -43 -35
-51 -4 -8 -17 -31 -30 -51 -12 -19 -60 -98 -107 -174 -47 -76 -94 -153 -105
-171 -43 -69 -121 -197 -142 -232 -46 -76 -16 -142 65 -142 44 0 64 19 108
100 10 19 24 42 31 51 15 18 56 85 303 491 24 40 54 87 66 103 11 17 24 37 28
45 4 8 12 24 19 35 7 11 24 38 37 60 14 23 30 50 37 60 157 256 158 257 121
308 -21 28 -87 33 -118 9z"/>
<path d="M2246 4129 c-14 -11 -26 -28 -26 -38 0 -9 -4 -21 -8 -26 -7 -9 -18
-36 -69 -170 -8 -22 -21 -53 -28 -70 -7 -16 -19 -48 -28 -70 -8 -22 -32 -79
-51 -126 -20 -47 -36 -91 -36 -96 0 -11 -22 -62 -45 -103 -14 -25 -15 -25
-182 -30 -204 -6 -234 -17 -278 -101 -14 -27 -19 -67 -23 -207 l-5 -173 -26
-13 c-40 -21 -57 -46 -71 -107 -10 -47 -10 -66 3 -123 8 -37 23 -76 32 -86 26
-29 101 -40 263 -40 l147 0 18 -40 c9 -22 17 -45 17 -50 0 -17 37 -81 72 -127
39 -51 122 -107 188 -129 36 -12 77 -15 157 -12 94 3 115 7 166 32 106 51 204
169 222 269 4 20 13 41 20 47 19 16 1042 15 1061 -1 8 -6 14 -21 14 -33 2 -81
122 -231 227 -282 55 -27 65 -29 190 -29 92 0 136 4 145 13 6 6 18 12 24 12 7
0 35 14 61 31 87 57 138 126 176 236 l24 68 143 -3 c158 -3 238 9 266 39 58
64 58 224 0 288 -10 11 -38 28 -62 37 -44 17 -44 17 -44 67 0 61 -25 105 -77
134 -28 16 -47 39 -72 88 -42 81 -60 90 -208 104 -369 36 -370 36 -417 101
-20 28 -36 52 -36 55 0 3 -9 18 -19 33 -32 46 -201 313 -201 317 0 3 -20 34
-45 71 -25 36 -45 67 -45 69 0 14 -113 176 -129 185 -13 7 -244 10 -699 10
-672 0 -680 0 -706 -21z m63 -1368 c21 -11 52 -36 69 -56 29 -32 32 -42 32
-99 0 -61 -2 -65 -39 -103 -54 -54 -107 -71 -163 -53 -24 8 -60 31 -80 52 -36
37 -38 42 -38 106 1 58 4 71 28 99 30 36 94 72 130 73 12 0 40 -9 61 -19z
m1918 -2 c64 -31 93 -79 93 -155 0 -56 -3 -64 -37 -101 -66 -72 -148 -79 -223
-21 -80 62 -83 189 -6 248 70 54 109 60 173 29z"/>
<path d="M6539 4133 c-14 -8 -31 -27 -37 -42 -6 -14 -43 -75 -82 -135 -38 -59
-70 -110 -70 -113 0 -3 -13 -22 -30 -43 -16 -21 -30 -41 -30 -46 0 -4 -22 -40
-50 -81 -27 -40 -50 -76 -50 -79 0 -3 -13 -25 -30 -49 -16 -24 -30 -47 -30
-50 0 -4 -13 -24 -30 -45 -16 -21 -30 -42 -30 -47 0 -5 -10 -19 -23 -31 -19
-18 -43 -24 -133 -32 -60 -6 -125 -15 -144 -19 -19 -5 -77 -12 -129 -15 -102
-7 -157 -25 -169 -53 -27 -67 -69 -126 -98 -138 -43 -18 -63 -51 -71 -116 -7
-65 -14 -76 -64 -91 -62 -18 -79 -55 -79 -169 0 -84 3 -98 25 -131 32 -48 81
-58 269 -58 159 0 163 -1 173 -64 3 -20 12 -41 19 -47 8 -6 14 -18 14 -26 0
-23 73 -110 125 -150 70 -53 138 -73 249 -73 126 0 186 21 289 100 40 32 101
126 121 190 10 30 22 60 27 67 8 8 118 10 432 7 375 -5 423 -7 435 -22 6 -8
12 -24 12 -34 0 -11 13 -46 30 -79 37 -74 122 -159 199 -196 48 -24 71 -28
163 -31 122 -4 178 9 257 62 59 39 128 117 147 166 3 8 12 30 20 48 8 18 14
39 14 46 0 31 29 37 196 39 140 2 175 5 201 20 98 53 99 260 1 328 -18 12 -35
24 -38 27 -3 2 -7 86 -10 187 l-5 184 -30 31 c-59 63 -87 70 -265 70 l-161 0
-26 58 c-13 31 -31 71 -39 89 -8 17 -14 36 -14 42 0 6 -4 19 -10 29 -14 26
-34 75 -90 222 -28 74 -56 143 -61 153 -5 9 -19 42 -30 72 -11 30 -30 62 -42
70 -19 13 -101 15 -607 15 -519 -1 -588 -2 -611 -17z m-451 -1369 c112 -46
147 -180 68 -262 -78 -83 -170 -80 -249 7 -33 37 -37 47 -37 95 0 67 40 128
103 156 52 23 68 24 115 4z m1734 -3 c54 -23 81 -54 97 -108 24 -85 -20 -166
-106 -199 -37 -14 -49 -15 -88 -4 -25 7 -57 21 -70 32 -43 34 -82 146 -56 163
5 3 12 18 16 34 8 36 35 61 88 83 54 22 67 22 119 -1z"/>
<path d="M5685 3676 c-72 -35 -137 -71 -145 -81 -19 -23 -17 -92 4 -113 21
-21 110 -20 135 2 10 9 20 16 24 16 15 0 165 74 195 97 27 21 32 30 32 67 0
35 -5 47 -25 60 -41 27 -83 18 -220 -48z"/>
</g>
</svg>
